<svg width="360" height="80" viewBox="0 0 360 80" fill="none" xmlns="http://www.w3.org/2000/svg">
<path d="M1.77869 1.89002C9.40661 1.89002 16.71 1.88175 24.2381 3.28405C39.665 6.15768 55.305 7.9708 70.551 11.8031C79.8247 14.1342 89.2062 15.7966 98.5091 17.9601C105.697 19.6318 112.627 22.7584 119.42 25.5886C126.184 28.4072 133.233 30.8925 139.711 34.34C146.29 37.8421 151.271 43.4241 157.485 47.4285C165.339 52.4899 173.245 61.5145 173.245 71.4368C173.245 77.7274 156.463 78.7421 151.947 77.4776C145.844 75.7688 137.449 67.5929 143.389 61.059C149.733 54.0807 159.836 49.5641 168.714 46.8863C184.934 41.9948 202.08 41.5573 218.938 41.62C231.495 41.6667 244.295 41.9229 256.732 43.7885C267.637 45.4243 278.391 48.2263 289.259 50.1391C304.117 52.7539 319.682 54.0832 333.83 59.7424C339.554 62.0322 343.576 66.4833 349.551 68.4164C351.178 68.9426 353.708 68.8878 355.166 69.6556C356.446 70.3291 356.28 71.5917 357.954 71.5917" stroke="#FFE600" stroke-width="3" stroke-linecap="round"/>
</svg>
