<svg width="156" height="69" viewBox="0 0 156 69" fill="none" xmlns="http://www.w3.org/2000/svg">
<path d="M153.814 23.7436C147.099 17.3492 137.045 13.7444 128.39 11.0201C120.343 8.48722 112.166 6.16909 103.866 4.62376C92.3402 2.47767 80.6052 2.27882 68.9172 2.59169C49.8174 3.10297 27.7293 4.0058 11.6615 15.8232C1.87535 23.0206 0.995482 34.524 3.91429 45.4844C7.09241 57.4186 25.4642 59.8901 35.3882 62.3759C56.1653 67.5802 77.3186 68.2471 98.5784 66.0937C109.442 64.9933 120.414 63.551 130.976 60.7133C138.528 58.6844 148.577 55.0176 151.654 46.9738C153.388 42.444 149.917 38.969 146.447 36.6287C143.317 34.5177 139.75 32.7885 136.021 32.0797C130.841 31.0949 126.494 32.4955 121.393 32.8879" stroke="#FFE600" stroke-width="3" stroke-linecap="round"/>
</svg>
