<svg width="184" height="88" viewBox="0 0 184 88" fill="none" xmlns="http://www.w3.org/2000/svg">
<path d="M155.14 34.7198C154.949 32.2299 152.287 29.735 150.685 27.9778C146.777 23.6921 141.513 20.2712 136.477 17.5032C121.423 9.2271 103.946 4.20255 86.7871 3.24927C72.4579 2.45321 58.2158 2.38611 43.8622 2.38611C38.5772 2.38611 33.4366 3.21329 28.2319 4.06578C24.7022 4.64392 20.63 5.4275 17.4073 7.09852C14.6216 8.54298 11.924 11.3995 9.63882 13.5373C7.34399 15.684 5.24709 17.6169 3.64332 20.3493C0.933011 24.9668 1.14434 32.8743 2.50021 37.8459C3.27266 40.6782 4.03459 43.3425 5.13636 46.0576C6.39536 49.1601 9.0027 51.6969 11.3418 54.036C16.3443 59.0386 22.2725 62.7385 28.1152 66.6336C31.0681 68.6022 34.5604 69.9818 37.89 71.1594C41.298 72.3646 44.367 74.3051 47.898 75.2419C59.3481 78.2797 71.1635 80.3824 82.9146 81.7506C94.2931 83.0755 105.727 84.557 117.161 85.4366C120.338 85.681 123.638 85.9498 126.819 85.9498C131.362 85.9498 135.744 85.0031 140.233 84.7134C144.52 84.4369 148.622 84.1021 152.808 83.1037C157.737 81.9279 162.777 81.7188 167.481 79.6277C174.434 76.5376 181.424 67.6262 182.342 60.0082C183.401 51.2155 178.445 42.5172 173.454 35.6063C172.131 33.7751 170.25 32.9503 168.158 32.2003C166.456 31.5902 165.377 30.407 163.539 30.1007" stroke="#FFE600" stroke-width="3" stroke-linecap="round"/>
</svg>
